/* XPM */
static const char * grid_button[] = {
"16 16 6 1",
" 	c None",
".	c #010101",
"+	c #000000",
"@	c #020202",
"#	c #050505",
"$	c #040404",
" .++@+.++@+.++@ ",
".@   @    @   ++",
"+    @    @    .",
"+    +    +    +",
"@    #    $    @",
"+@@+#+@@+#+@@+#+",
".    @    @    +",
"+    @    @    .",
"+    +    +    +",
"@    #    #    @",
"+@@+#+@@+#+@@+#+",
".    @    @    +",
"+    @    @    .",
"+    +    +    +",
"@+   #    #   +@",
" +@+@++@+@++@+@ "};
