/* XPM */
static const char * snap_grid_button[] = {
"16 16 2 1",
" 	c None",
".	c #000000",
"                ",
" .....    ..... ",
" .....    ..... ",
" .....    ..... ",
" .....    ..... ",
" .  ..    ..  . ",
" .  ..    ..  . ",
" .  ..    ..  . ",
" .  ..    ..  . ",
" .  ..    ..  . ",
" .  ...  ...  . ",
" ..  ......  .. ",
" ..    ..    .. ",
"  ..        ..  ",
"   ..........   ",
"    ........    "};
